<svg width="150px" height="39px" viewBox="0 0 150 39" version="1.1" xmlns="http://www.w3.org/2000/svg" xmlns:xlink="http://www.w3.org/1999/xlink">
<desc>Created with Sketch.</desc>
<defs></defs>
<path d="M54.256157,22.2551929 L54.256157,17.2081602 L52.7428039,17.2081602 L51.5169879,20.3635015 L50.2911718,17.2081602 L48.7853855,17.2081602 L48.7853855,22.2551929 L49.8598662,22.2551929 L49.8598662,18.6155786 L51.2824181,22.2551929 L51.7515576,22.2551929 L53.1741095,18.6155786 L53.1741095,22.2551929 L54.256157,22.2551929 Z M62.3650591,22.2551929 L61.1468099,22.2551929 L60.8290057,21.4001484 L58.6649107,21.4001484 L58.3471066,22.2551929 L57.1288573,22.2551929 L59.0735161,17.2081602 L60.4204004,17.2081602 L62.3650591,22.2551929 Z M60.5339018,20.4543027 L59.7469582,18.2826409 L58.9600146,20.4543027 L60.5339018,20.4543027 Z M69.3313796,22.2551929 L68.0904301,22.2551929 L67.0991838,20.4618694 L66.3122402,20.4618694 L66.3122402,22.2551929 L65.2377595,22.2551929 L65.2377595,17.2081602 L67.5985903,17.2081602 C68.6503707,17.2081602 69.3011126,17.8967359 69.3011126,18.8350148 C69.3011126,19.7203264 68.7336052,20.2045994 68.188798,20.3332344 L69.3313796,22.2551929 Z M67.447255,19.5160237 C67.8709939,19.5160237 68.1963648,19.2587537 68.1963648,18.8274481 C68.1963648,18.411276 67.8709939,18.1540059 67.447255,18.1540059 L66.3122402,18.1540059 L66.3122402,19.5160237 L67.447255,19.5160237 Z M74.9583826,22.3459941 C76.0631304,22.3459941 76.7063055,21.7330861 77.0619435,21.1050445 L76.1387981,20.6586053 C75.9269286,21.0672107 75.4729227,21.3925816 74.9583826,21.3925816 C74.0352372,21.3925816 73.3693619,20.6888724 73.3693619,19.7354599 C73.3693619,18.7820475 74.0352372,18.0783383 74.9583826,18.0783383 C75.4729227,18.0783383 75.9269286,18.4037092 76.1387981,18.8123145 L77.0619435,18.3583086 C76.7063055,17.7227003 76.0631304,17.1249258 74.9583826,17.1249258 C73.4374628,17.1249258 72.2646141,18.1767062 72.2646141,19.7354599 C72.2646141,21.2866469 73.4374628,22.3459941 74.9583826,22.3459941 Z M82.5073441,22.3459941 C80.9788575,22.3459941 79.8665429,21.2563798 79.8665429,19.7354599 C79.8665429,18.2145401 80.9788575,17.1249258 82.5073441,17.1249258 C84.028264,17.1249258 85.1405785,18.2145401 85.1405785,19.7354599 C85.1405785,21.2563798 84.028264,22.3459941 82.5073441,22.3459941 Z M82.5073441,21.3925816 C83.4380563,21.3925816 84.0358308,20.6737389 84.0358308,19.7354599 C84.0358308,18.7896142 83.4380563,18.0783383 82.5073441,18.0783383 C81.5690652,18.0783383 80.9712907,18.7896142 80.9712907,19.7354599 C80.9712907,20.6737389 81.5690652,21.3925816 82.5073441,21.3925816 Z M96.9772255,22.2551929 L95.7514095,22.2551929 C95.6454748,22.1568249 95.5168397,22.0281899 95.3730712,21.8768546 C94.9947329,22.1643917 94.5331602,22.3459941 93.9959199,22.3459941 C93.0727745,22.3459941 92.3312314,21.8617211 92.3312314,20.8856083 C92.3312314,20.121365 92.8382047,19.7203264 93.4208457,19.4252226 C93.216543,19.054451 93.087908,18.6836795 93.087908,18.3431751 C93.087908,17.6621662 93.6856825,17.1324926 94.5255935,17.1324926 C95.2368694,17.1324926 95.8497774,17.5183976 95.8497774,18.1994065 C95.8497774,18.9712166 95.2368694,19.2965875 94.6163946,19.5841246 C94.7677299,19.7884273 94.9190653,19.9775964 95.0477003,20.1289318 C95.1914688,20.3105341 95.3352374,20.4845697 95.4790059,20.6510386 C95.6908753,20.3181009 95.8497774,19.9624629 95.9405786,19.6673591 L96.7048219,20.022997 C96.5232196,20.4240356 96.2962166,20.8553412 96.0011127,21.2336795 C96.3037834,21.5666172 96.6291543,21.8995549 96.9772255,22.2551929 Z M94.1321216,21.5893175 C94.3893917,21.5893175 94.6390949,21.4909496 94.8585311,21.3320475 C94.6315282,21.0823442 94.4196587,20.8402077 94.2985905,20.6888724 C94.1321216,20.4845697 93.9505193,20.2575668 93.7916172,20.022997 C93.5267804,20.2121662 93.3527448,20.4467359 93.3527448,20.7948071 C93.3527448,21.2866469 93.7159495,21.5893175 94.1321216,21.5893175 Z M94.0413205,18.3658754 C94.0413205,18.570178 94.1245549,18.8047478 94.2607567,19.0468843 C94.6844955,18.8425816 95.0174332,18.6231454 95.0174332,18.2523739 C95.0174332,17.9875371 94.8206973,17.828635 94.570994,17.828635 C94.2758902,17.828635 94.0413205,18.0480712 94.0413205,18.3658754 Z M107.035683,22.2551929 L104.296513,22.2551929 L104.296513,17.2081602 L106.952448,17.2081602 C107.913427,17.2081602 108.405267,17.8210682 108.405267,18.4945104 C108.405267,19.1225519 108.011795,19.5538576 107.535089,19.6522255 C108.079896,19.7354599 108.503635,20.2575668 108.503635,20.8856083 C108.503635,21.6498516 108.004229,22.2551929 107.035683,22.2551929 Z M106.717878,19.2133531 C107.081083,19.2133531 107.308086,19.0090504 107.308086,18.6836795 C107.308086,18.3734421 107.081083,18.1540059 106.717878,18.1540059 L105.370994,18.1540059 L105.370994,19.2133531 L106.717878,19.2133531 Z M106.763279,21.3093472 C107.164318,21.3093472 107.406454,21.0974777 107.406454,20.734273 C107.406454,20.4164688 107.179451,20.1591988 106.763279,20.1591988 L105.370994,20.1591988 L105.370994,21.3093472 L106.763279,21.3093472 Z M115.288353,22.2551929 L115.288353,21.3093472 L112.791321,21.3093472 L112.791321,20.1591988 L115.235386,20.1591988 L115.235386,19.2133531 L112.791321,19.2133531 L112.791321,18.1540059 L115.288353,18.1540059 L115.288353,17.2081602 L111.71684,17.2081602 L111.71684,22.2551929 L115.288353,22.2551929 Z M121.7023,22.2551929 L121.7023,21.3093472 L119.568472,21.3093472 L119.568472,17.2081602 L118.486424,17.2081602 L118.486424,22.2551929 L121.7023,22.2551929 Z M128.002745,22.2551929 L128.002745,21.3093472 L125.868917,21.3093472 L125.868917,17.2081602 L124.78687,17.2081602 L124.78687,22.2551929 L128.002745,22.2551929 Z M135.839244,22.2551929 L134.620994,22.2551929 L134.30319,21.4001484 L132.139095,21.4001484 L131.821291,22.2551929 L130.603042,22.2551929 L132.547701,17.2081602 L133.894585,17.2081602 L135.839244,22.2551929 Z M134.008086,20.4543027 L132.434199,20.4543027 L133.221143,18.2826409 L134.008086,20.4543027 Z M0,0 L38.7240356,0 L38.7240356,38.7240356 L0,38.7240356 L0,0 Z M146.884273,0 L150,0 L150,38.7240356 L146.884273,38.7240356 L146.884273,0 Z M38.7240356,0 L146.884273,0 L146.884273,3.56083086 L38.7240356,3.56083086 L38.7240356,0 Z M38.7240356,35.1632047 L146.884273,35.1632047 L146.884273,38.7240356 L38.7240356,38.7240356 L38.7240356,35.1632047 Z M16.3437111,23.0259731 C16.6109818,22.5107996 16.9281947,22.0142192 17.2977872,21.5411623 C17.7004119,21.0258263 18.1456103,20.5626655 18.6270289,20.1527681 C18.3070808,18.6795068 18.6035493,17.104567 19.5801985,15.8545131 C21.362831,13.5728475 24.7429252,13.2223921 27.1141195,15.0749722 C29.4862902,16.9283151 29.9643307,20.2923191 28.1813312,22.5744544 C27.094208,23.9659087 25.4122603,24.6384449 23.7265697,24.5318688 C23.235219,24.7622766 22.7922341,25.1068804 22.4387906,25.5592674 C22.0167137,26.0995012 21.7765565,26.7258837 21.7052071,27.3676496 C24.9795812,28.3318864 28.5963046,27.3424573 30.7518329,24.583507 C33.6003012,20.9376337 32.835183,15.5631996 29.0457635,12.6025806 C25.2578086,9.64310592 19.8579193,10.2009082 17.0094509,13.8467815 C14.9203539,16.5207037 14.7758307,20.1260786 16.3437111,23.0259731 Z M22.2324755,15.7238762 C21.9656362,16.2384976 21.6488668,16.7345103 21.2797282,17.2069862 C20.877598,17.7216894 20.4328828,18.1842317 19.9519326,18.5935296 C20.2726095,20.0658581 19.9772174,21.6394202 19.0017677,22.8879389 C17.2213244,25.1668023 13.8430125,25.5149765 11.4718181,23.6623965 C9.0996474,21.8090536 8.61982514,18.4473301 10.4006349,16.1679975 C11.486423,14.7782521 13.167187,14.1072309 14.8521565,14.2147301 C15.3431412,13.9847908 15.7857145,13.6407138 16.1387239,13.1888823 C16.5602825,12.649312 16.7999547,12.0235502 16.8708885,11.3823163 C13.5974641,10.4168639 9.98301381,11.4033835 7.8301328,14.1589456 C4.98516268,17.8003413 5.75312695,23.1711327 9.54254642,26.1317517 C13.3305013,29.0912264 18.7275446,28.5370668 21.5725147,24.8956711 C23.6590461,22.2250327 23.8013539,18.6224934 22.2324755,15.7238762 Z" id="Black-Logo-No-WWW" stroke="none" fill="#000000" fill-rule="evenodd"></path>
</svg>