<?xml version="1.0" standalone="no"?>
<!DOCTYPE svg PUBLIC "-//W3C//DTD SVG 20010904//EN"
 "http://www.w3.org/TR/2001/REC-SVG-20010904/DTD/svg10.dtd">
<svg version="1.0" xmlns="http://www.w3.org/2000/svg"
 width="700.000000pt" height="700.000000pt" viewBox="0 0 700.000000 700.000000"
 preserveAspectRatio="xMidYMid meet">
<metadata>
Created by potrace 1.11, written by Peter Selinger 2001-2013
</metadata>
<g id="Page-1" stroke="none" stroke-width="1" fill="none" fill-rule="evenodd">
        <rect id="Background-Copy" fill="#FFFFFF" x="0" y="0" width="449.522971" height="449.9"></rect>
        <path d="M0,0 L449.522971,0 L449.522971,449.9 L0,449.9 L0,0 Z M193.045971,267.316343 C196.151968,261.331641 199.837809,255.56265 204.131775,250.066625 C208.809511,244.079395 213.98137,238.69795 219.573568,233.934957 C215.865271,216.825397 219.31532,198.531989 230.662135,184.008728 C251.372951,157.500093 290.624468,153.413792 318.150172,174.919229 C345.687209,196.433521 351.222355,235.502208 330.507275,262.016301 C317.876961,278.182366 298.342904,286.001427 278.769065,284.77157 C273.062382,287.449943 267.916787,291.454407 263.810442,296.710288 C258.906708,302.986782 256.115028,310.262984 255.283483,317.717058 C293.301162,328.90064 335.30345,317.391914 360.346608,285.338133 C393.440419,242.979986 384.581206,180.562682 340.592219,146.194718 C296.620233,111.840038 233.913752,118.344094 200.819941,160.70224 C176.548588,191.768155 174.853345,233.643165 193.045971,267.316343 Z M259.517321,183.894373 C256.416335,189.872661 252.735647,195.635056 248.446955,201.124331 C243.774963,207.104208 238.608718,212.478468 233.021961,217.234497 C236.738727,234.333218 233.301183,252.610619 221.968303,267.116044 C201.282922,293.592124 162.052112,297.651922 134.526408,276.146485 C106.98937,254.632193 101.433524,215.590002 122.123163,189.108472 C134.737966,172.962261 154.25827,165.160801 173.823731,166.401383 C179.526162,163.728452 184.666976,159.730108 188.768277,154.480681 C193.665989,148.211896 196.452034,140.942906 197.278751,133.495012 C159.272106,122.297307 117.296227,133.772231 92.2838244,165.786647 C59.2306563,208.092772 68.1229354,270.467755 112.111922,304.835719 C156.083908,339.190399 218.757324,332.728665 251.810492,290.422539 C276.052037,259.394776 277.721541,217.552711 259.517321,183.894373 Z" id="Black-Square" fill="#0077BC"></path>
    </g>
</svg>
